<mxfile host="app.diagrams.net" agent="Mozilla/5.0 (Windows NT 10.0; Win64; x64) AppleWebKit/537.36 (KHTML, like Gecko) Chrome/140.0.0.0 Safari/537.36" version="28.2.0">
  <diagram name="Page-1" id="nO-SsdrrN46BXJKt2fKj">
    <mxGraphModel dx="1587" dy="724" grid="1" gridSize="10" guides="1" tooltips="1" connect="1" arrows="1" fold="1" page="1" pageScale="1" pageWidth="850" pageHeight="1100" math="0" shadow="0">
      <root>
        <mxCell id="0" />
        <mxCell id="1" parent="0" />
        <mxCell id="-LCvTbXNoBqqWtnFluwu-1" value="&#xa;&#xa;&#xa;&#xa;&#xa;&#xa;&#xa;&#xa;&#xa;&#xa;&#xa;&#xa;&#xa;&#xa;&#xa;&#xa;&#xa;&#xa;&#xa;&#xa;&#xa;&#xa;&#xa;&#xa;&#xa;&#xa;&#xa;&#xa;&#xa;&#xa;&#xa;&#xa;&#xa;&#xa;&#xa;&#xa;&#xa;&#xa;&#xa;&#xa;&#xa;&#xa;&#xa;&#xa;&#xa;&#xa;&#xa;&#xa;&#xa;&#xa;&#xa;&#xa;&#xa;&#xa;&#xa;&#xa;&#xa;&#xa;&#xa;&#xa;&#xa;&#xa;&#xa;&#xa;&#xa;&#xa;&#xa;&#xa;&#xa;&#xa;&#xa;&#xa;&#xa;&#xa;&#xa;&#xa;&#xa;&#xa;&#xa;&#xa;&#xa;&#xa;&#xa;&#xa;&#xa;&#xa;&#xa;" style="text;whiteSpace=wrap;html=1;" parent="1" vertex="1">
          <mxGeometry x="20" y="20" width="750" height="1180" as="geometry" />
        </mxCell>
        <mxCell id="-LCvTbXNoBqqWtnFluwu-2" value="&#xa;&#xa;&#xa;&#xa;&#xa;&#xa;&#xa;&#xa;&#xa;&#xa;&#xa;&#xa;&#xa;&#xa;&#xa;&#xa;&#xa;&#xa;&#xa;&#xa;&#xa;&#xa;&#xa;&#xa;&#xa;&#xa;&#xa;&#xa;&#xa;&#xa;&#xa;&#xa;&#xa;&#xa;&#xa;&#xa;&#xa;&#xa;&#xa;&#xa;&#xa;&#xa;&#xa;&#xa;&#xa;&#xa;&#xa;&#xa;&#xa;&#xa;&#xa;&#xa;&#xa;&#xa;&#xa;&#xa;&#xa;&#xa;&#xa;&#xa;&#xa;&#xa;&#xa;&#xa;&#xa;&#xa;&#xa;&#xa;&#xa;&#xa;&#xa;&#xa;&#xa;&#xa;&#xa;&#xa;&#xa;&#xa;&#xa;&#xa;&#xa;&#xa;&#xa;&#xa;&#xa;&#xa;&#xa;" style="text;whiteSpace=wrap;html=1;" parent="1" vertex="1">
          <mxGeometry x="30" y="110" width="30" height="1280" as="geometry" />
        </mxCell>
        <mxCell id="PaAWYgCah4KzTUtDjkoS-1" value="AWS Architecture" style="whiteSpace=wrap;strokeWidth=2;" vertex="1" parent="1">
          <mxGeometry x="260" y="263" width="1237" height="358" as="geometry" />
        </mxCell>
        <mxCell id="PaAWYgCah4KzTUtDjkoS-2" value="3D E-commerce Web Application" style="whiteSpace=wrap;strokeWidth=2;" vertex="1" parent="1">
          <mxGeometry x="375" y="8" width="260" height="78" as="geometry" />
        </mxCell>
        <mxCell id="PaAWYgCah4KzTUtDjkoS-3" value="User Interface" style="whiteSpace=wrap;strokeWidth=2;" vertex="1" parent="1">
          <mxGeometry x="75" y="136" width="162" height="54" as="geometry" />
        </mxCell>
        <mxCell id="PaAWYgCah4KzTUtDjkoS-4" value="3D Model Viewer" style="whiteSpace=wrap;strokeWidth=2;" vertex="1" parent="1">
          <mxGeometry x="8" y="288" width="179" height="54" as="geometry" />
        </mxCell>
        <mxCell id="PaAWYgCah4KzTUtDjkoS-5" value="Backend Server" style="whiteSpace=wrap;strokeWidth=2;" vertex="1" parent="1">
          <mxGeometry x="852" y="288" width="170" height="54" as="geometry" />
        </mxCell>
        <mxCell id="PaAWYgCah4KzTUtDjkoS-6" value="Database" style="whiteSpace=wrap;strokeWidth=2;" vertex="1" parent="1">
          <mxGeometry x="487" y="415" width="126" height="54" as="geometry" />
        </mxCell>
        <mxCell id="PaAWYgCah4KzTUtDjkoS-7" value="Cloud Storage" style="whiteSpace=wrap;strokeWidth=2;" vertex="1" parent="1">
          <mxGeometry x="278" y="415" width="159" height="54" as="geometry" />
        </mxCell>
        <mxCell id="PaAWYgCah4KzTUtDjkoS-8" value="Authentication Service" style="whiteSpace=wrap;strokeWidth=2;" vertex="1" parent="1">
          <mxGeometry x="663" y="415" width="223" height="54" as="geometry" />
        </mxCell>
        <mxCell id="PaAWYgCah4KzTUtDjkoS-9" value="Content Delivery Network" style="whiteSpace=wrap;strokeWidth=2;" vertex="1" parent="1">
          <mxGeometry x="1185" y="288" width="245" height="54" as="geometry" />
        </mxCell>
        <mxCell id="PaAWYgCah4KzTUtDjkoS-10" value="Amazon S3" style="whiteSpace=wrap;strokeWidth=2;" vertex="1" parent="1">
          <mxGeometry x="289" y="542" width="137" height="54" as="geometry" />
        </mxCell>
        <mxCell id="PaAWYgCah4KzTUtDjkoS-11" value="Amazon RDS" style="whiteSpace=wrap;strokeWidth=2;" vertex="1" parent="1">
          <mxGeometry x="476" y="542" width="148" height="54" as="geometry" />
        </mxCell>
        <mxCell id="PaAWYgCah4KzTUtDjkoS-12" value="Amazon EC2" style="whiteSpace=wrap;strokeWidth=2;" vertex="1" parent="1">
          <mxGeometry x="1011" y="415" width="147" height="54" as="geometry" />
        </mxCell>
        <mxCell id="PaAWYgCah4KzTUtDjkoS-13" value="Amazon Cognito" style="whiteSpace=wrap;strokeWidth=2;" vertex="1" parent="1">
          <mxGeometry x="686" y="542" width="175" height="54" as="geometry" />
        </mxCell>
        <mxCell id="PaAWYgCah4KzTUtDjkoS-14" value="Amazon CloudFront" style="whiteSpace=wrap;strokeWidth=2;" vertex="1" parent="1">
          <mxGeometry x="1208" y="415" width="200" height="54" as="geometry" />
        </mxCell>
        <mxCell id="PaAWYgCah4KzTUtDjkoS-15" value="" style="curved=1;startArrow=none;endArrow=block;exitX=0;exitY=0.8;entryX=0.5;entryY=0;" edge="1" parent="1" source="PaAWYgCah4KzTUtDjkoS-2" target="PaAWYgCah4KzTUtDjkoS-3">
          <mxGeometry relative="1" as="geometry">
            <Array as="points">
              <mxPoint x="156" y="111" />
            </Array>
          </mxGeometry>
        </mxCell>
        <mxCell id="PaAWYgCah4KzTUtDjkoS-16" value="" style="curved=1;startArrow=none;endArrow=block;exitX=0;exitY=0.73;entryX=0.33;entryY=0;" edge="1" parent="1" source="PaAWYgCah4KzTUtDjkoS-2" target="PaAWYgCah4KzTUtDjkoS-4">
          <mxGeometry relative="1" as="geometry">
            <Array as="points">
              <mxPoint x="40" y="111" />
              <mxPoint x="40" y="263" />
            </Array>
          </mxGeometry>
        </mxCell>
        <mxCell id="PaAWYgCah4KzTUtDjkoS-17" value="" style="curved=1;startArrow=none;endArrow=block;exitX=1;exitY=0.75;entryX=0.5;entryY=0;" edge="1" parent="1" source="PaAWYgCah4KzTUtDjkoS-2" target="PaAWYgCah4KzTUtDjkoS-5">
          <mxGeometry relative="1" as="geometry">
            <Array as="points">
              <mxPoint x="937" y="111" />
            </Array>
          </mxGeometry>
        </mxCell>
        <mxCell id="PaAWYgCah4KzTUtDjkoS-18" value="" style="curved=1;startArrow=none;endArrow=block;exitX=0.5;exitY=1;entryX=0.35;entryY=0;" edge="1" parent="1" source="PaAWYgCah4KzTUtDjkoS-2" target="PaAWYgCah4KzTUtDjkoS-6">
          <mxGeometry relative="1" as="geometry">
            <Array as="points">
              <mxPoint x="505" y="379" />
            </Array>
          </mxGeometry>
        </mxCell>
        <mxCell id="PaAWYgCah4KzTUtDjkoS-19" value="" style="curved=1;startArrow=none;endArrow=block;exitX=0.03;exitY=1;entryX=0.36;entryY=0;" edge="1" parent="1" source="PaAWYgCah4KzTUtDjkoS-2" target="PaAWYgCah4KzTUtDjkoS-7">
          <mxGeometry relative="1" as="geometry">
            <Array as="points">
              <mxPoint x="305" y="111" />
              <mxPoint x="305" y="379" />
            </Array>
          </mxGeometry>
        </mxCell>
        <mxCell id="PaAWYgCah4KzTUtDjkoS-20" value="" style="curved=1;startArrow=none;endArrow=block;exitX=0.95;exitY=1;entryX=0.35;entryY=0;" edge="1" parent="1" source="PaAWYgCah4KzTUtDjkoS-2" target="PaAWYgCah4KzTUtDjkoS-8">
          <mxGeometry relative="1" as="geometry">
            <Array as="points">
              <mxPoint x="696" y="111" />
              <mxPoint x="696" y="379" />
            </Array>
          </mxGeometry>
        </mxCell>
        <mxCell id="PaAWYgCah4KzTUtDjkoS-21" value="" style="curved=1;startArrow=none;endArrow=block;exitX=1;exitY=0.63;entryX=0.5;entryY=0;" edge="1" parent="1" source="PaAWYgCah4KzTUtDjkoS-2" target="PaAWYgCah4KzTUtDjkoS-9">
          <mxGeometry relative="1" as="geometry">
            <Array as="points">
              <mxPoint x="1308" y="111" />
            </Array>
          </mxGeometry>
        </mxCell>
        <mxCell id="PaAWYgCah4KzTUtDjkoS-22" value="Interacts with" style="curved=1;startArrow=none;endArrow=block;exitX=0.5;exitY=1;entryX=0.67;entryY=0;" edge="1" parent="1" source="PaAWYgCah4KzTUtDjkoS-3" target="PaAWYgCah4KzTUtDjkoS-4">
          <mxGeometry relative="1" as="geometry">
            <Array as="points">
              <mxPoint x="156" y="263" />
            </Array>
          </mxGeometry>
        </mxCell>
        <mxCell id="PaAWYgCah4KzTUtDjkoS-23" value="Fetches 3D Models" style="curved=1;startArrow=none;endArrow=block;exitX=1;exitY=0.83;entryX=0.66;entryY=0;" edge="1" parent="1" source="PaAWYgCah4KzTUtDjkoS-4" target="PaAWYgCah4KzTUtDjkoS-7">
          <mxGeometry relative="1" as="geometry">
            <Array as="points">
              <mxPoint x="417" y="379" />
            </Array>
          </mxGeometry>
        </mxCell>
        <mxCell id="PaAWYgCah4KzTUtDjkoS-24" value="API Calls" style="curved=1;startArrow=none;endArrow=block;exitX=0;exitY=0.84;entryX=0.81;entryY=0;" edge="1" parent="1" source="PaAWYgCah4KzTUtDjkoS-5" target="PaAWYgCah4KzTUtDjkoS-6">
          <mxGeometry relative="1" as="geometry">
            <Array as="points">
              <mxPoint x="643" y="379" />
            </Array>
          </mxGeometry>
        </mxCell>
        <mxCell id="PaAWYgCah4KzTUtDjkoS-25" value="Handles Authentication" style="curved=1;startArrow=none;endArrow=block;exitX=0.26;exitY=1;entryX=0.63;entryY=0;" edge="1" parent="1" source="PaAWYgCah4KzTUtDjkoS-5" target="PaAWYgCah4KzTUtDjkoS-8">
          <mxGeometry relative="1" as="geometry">
            <Array as="points">
              <mxPoint x="842" y="379" />
            </Array>
          </mxGeometry>
        </mxCell>
        <mxCell id="PaAWYgCah4KzTUtDjkoS-26" value="" style="curved=1;startArrow=none;endArrow=block;exitX=0.69;exitY=0;entryX=0.67;entryY=1;" edge="1" parent="1" source="PaAWYgCah4KzTUtDjkoS-10" target="PaAWYgCah4KzTUtDjkoS-7">
          <mxGeometry relative="1" as="geometry">
            <Array as="points">
              <mxPoint x="419" y="506" />
            </Array>
          </mxGeometry>
        </mxCell>
        <mxCell id="PaAWYgCah4KzTUtDjkoS-27" value="" style="curved=1;startArrow=none;endArrow=block;exitX=0.7;exitY=0;entryX=0.73;entryY=1;" edge="1" parent="1" source="PaAWYgCah4KzTUtDjkoS-11" target="PaAWYgCah4KzTUtDjkoS-6">
          <mxGeometry relative="1" as="geometry">
            <Array as="points">
              <mxPoint x="618" y="506" />
            </Array>
          </mxGeometry>
        </mxCell>
        <mxCell id="PaAWYgCah4KzTUtDjkoS-28" value="" style="curved=1;startArrow=none;endArrow=block;exitX=0.67;exitY=0;entryX=1;entryY=0.98;" edge="1" parent="1" source="PaAWYgCah4KzTUtDjkoS-12" target="PaAWYgCah4KzTUtDjkoS-5">
          <mxGeometry relative="1" as="geometry">
            <Array as="points">
              <mxPoint x="1144" y="379" />
            </Array>
          </mxGeometry>
        </mxCell>
        <mxCell id="PaAWYgCah4KzTUtDjkoS-29" value="" style="curved=1;startArrow=none;endArrow=block;exitX=1;exitY=0.2;entryX=1;entryY=0.88;" edge="1" parent="1" source="PaAWYgCah4KzTUtDjkoS-13" target="PaAWYgCah4KzTUtDjkoS-8">
          <mxGeometry relative="1" as="geometry">
            <Array as="points">
              <mxPoint x="1117" y="506" />
            </Array>
          </mxGeometry>
        </mxCell>
        <mxCell id="PaAWYgCah4KzTUtDjkoS-30" value="" style="curved=1;startArrow=none;endArrow=block;exitX=0.65;exitY=0;entryX=0.62;entryY=1;" edge="1" parent="1" source="PaAWYgCah4KzTUtDjkoS-14" target="PaAWYgCah4KzTUtDjkoS-9">
          <mxGeometry relative="1" as="geometry">
            <Array as="points">
              <mxPoint x="1377" y="379" />
            </Array>
          </mxGeometry>
        </mxCell>
        <mxCell id="PaAWYgCah4KzTUtDjkoS-31" value="Stores 3D Assets" style="curved=1;startArrow=none;endArrow=block;exitX=0.41;exitY=1;entryX=0.4;entryY=0;" edge="1" parent="1" source="PaAWYgCah4KzTUtDjkoS-7" target="PaAWYgCah4KzTUtDjkoS-10">
          <mxGeometry relative="1" as="geometry">
            <Array as="points">
              <mxPoint x="325" y="506" />
            </Array>
          </mxGeometry>
        </mxCell>
        <mxCell id="PaAWYgCah4KzTUtDjkoS-32" value="Houses User Data" style="curved=1;startArrow=none;endArrow=block;exitX=0.34;exitY=1;entryX=0.37;entryY=0;" edge="1" parent="1" source="PaAWYgCah4KzTUtDjkoS-6" target="PaAWYgCah4KzTUtDjkoS-11">
          <mxGeometry relative="1" as="geometry">
            <Array as="points">
              <mxPoint x="503" y="506" />
            </Array>
          </mxGeometry>
        </mxCell>
        <mxCell id="PaAWYgCah4KzTUtDjkoS-33" value="Hosts Application Logic" style="curved=1;startArrow=none;endArrow=block;exitX=0.74;exitY=1;entryX=0.35;entryY=0;" edge="1" parent="1" source="PaAWYgCah4KzTUtDjkoS-5" target="PaAWYgCah4KzTUtDjkoS-12">
          <mxGeometry relative="1" as="geometry">
            <Array as="points">
              <mxPoint x="1032" y="379" />
            </Array>
          </mxGeometry>
        </mxCell>
        <mxCell id="PaAWYgCah4KzTUtDjkoS-34" value="Manages User Sessions" style="curved=1;startArrow=none;endArrow=block;exitX=0.4;exitY=1;entryX=0.37;entryY=0;" edge="1" parent="1" source="PaAWYgCah4KzTUtDjkoS-8" target="PaAWYgCah4KzTUtDjkoS-13">
          <mxGeometry relative="1" as="geometry">
            <Array as="points">
              <mxPoint x="721" y="506" />
            </Array>
          </mxGeometry>
        </mxCell>
        <mxCell id="PaAWYgCah4KzTUtDjkoS-35" value="Delivers Static Content" style="curved=1;startArrow=none;endArrow=block;exitX=0.4;exitY=1;entryX=0.37;entryY=0;" edge="1" parent="1" source="PaAWYgCah4KzTUtDjkoS-9" target="PaAWYgCah4KzTUtDjkoS-14">
          <mxGeometry relative="1" as="geometry">
            <Array as="points">
              <mxPoint x="1248" y="379" />
            </Array>
          </mxGeometry>
        </mxCell>
      </root>
    </mxGraphModel>
  </diagram>
</mxfile>
